<svg width="800" height="449" viewBox="0 0 800 449" fill="none" xmlns="http://www.w3.org/2000/svg">
  <rect width="800" height="449" fill="#090706"/>
  <rect width="800" height="449" fill="url(#bg)"/>
  <rect x="26" y="28" width="748" height="98" rx="26" fill="rgba(255,255,255,0.06)" stroke="rgba(255,255,255,0.12)"/>
  <text x="52" y="66" fill="#FCD34D" font-family="Inter, Arial, sans-serif" font-size="13" font-weight="800" letter-spacing="4">DR. ALICIA SOCIAL STUDIO</text>
  <text x="52" y="106" fill="#FFFFFF" font-family="Inter, Arial, sans-serif" font-size="38" font-weight="900">Content Scheduler Dashboard</text>
  <rect x="26" y="150" width="178" height="265" rx="22" fill="rgba(255,255,255,0.055)" stroke="rgba(255,255,255,0.12)"/>
  <text x="48" y="185" fill="#FAFAFA" font-family="Inter, Arial, sans-serif" font-size="15" font-weight="800">Filters</text>
  <rect x="48" y="205" width="48" height="26" rx="13" fill="#F59E0B"/>
  <rect x="104" y="205" width="48" height="26" rx="13" fill="rgba(255,255,255,0.12)"/>
  <rect x="48" y="248" width="132" height="10" rx="5" fill="rgba(255,255,255,0.12)"/>
  <rect x="48" y="272" width="112" height="10" rx="5" fill="rgba(255,255,255,0.12)"/>
  <rect x="48" y="296" width="94" height="10" rx="5" fill="rgba(255,255,255,0.12)"/>
  <rect x="48" y="342" width="132" height="44" rx="14" fill="rgba(251,191,36,0.12)" stroke="rgba(251,191,36,0.22)"/>
  <rect x="224" y="150" width="348" height="265" rx="22" fill="rgba(255,255,255,0.045)" stroke="rgba(255,255,255,0.12)"/>
  <text x="250" y="185" fill="#FFFFFF" font-family="Inter, Arial, sans-serif" font-size="18" font-weight="900">Schedule board</text>
  <rect x="250" y="212" width="296" height="58" rx="18" fill="rgba(245,158,11,0.13)" stroke="rgba(251,191,36,0.35)"/>
  <rect x="274" y="232" width="116" height="10" rx="5" fill="#FDE68A" opacity="0.85"/>
  <rect x="274" y="250" width="230" height="8" rx="4" fill="rgba(255,255,255,0.30)"/>
  <rect x="250" y="288" width="296" height="48" rx="16" fill="rgba(255,255,255,0.07)"/>
  <rect x="274" y="306" width="142" height="8" rx="4" fill="rgba(255,255,255,0.35)"/>
  <rect x="250" y="352" width="296" height="48" rx="16" fill="rgba(255,255,255,0.07)"/>
  <rect x="274" y="370" width="166" height="8" rx="4" fill="rgba(255,255,255,0.35)"/>
  <rect x="592" y="150" width="182" height="265" rx="22" fill="rgba(20,184,166,0.10)" stroke="rgba(94,234,212,0.20)"/>
  <text x="616" y="185" fill="#99F6E4" font-family="Inter, Arial, sans-serif" font-size="12" font-weight="900" letter-spacing="3">NEXT ACTION</text>
  <rect x="616" y="212" width="132" height="12" rx="6" fill="#FFFFFF" opacity="0.88"/>
  <rect x="616" y="238" width="120" height="8" rx="4" fill="rgba(255,255,255,0.32)"/>
  <rect x="616" y="254" width="96" height="8" rx="4" fill="rgba(255,255,255,0.24)"/>
  <rect x="616" y="294" width="132" height="36" rx="12" fill="url(#button)"/>
  <rect x="616" y="352" width="132" height="38" rx="12" fill="rgba(255,255,255,0.08)" stroke="rgba(255,255,255,0.12)"/>
  <defs>
    <radialGradient id="bg" cx="0" cy="0" r="1" gradientUnits="userSpaceOnUse" gradientTransform="translate(140 0) rotate(38) scale(620 400)">
      <stop stop-color="#F59E0B" stop-opacity="0.22"/>
      <stop offset="0.45" stop-color="#7C3AED" stop-opacity="0.16"/>
      <stop offset="1" stop-color="#090706" stop-opacity="0"/>
    </radialGradient>
    <linearGradient id="button" x1="616" y1="294" x2="748" y2="330" gradientUnits="userSpaceOnUse">
      <stop stop-color="#06B6D4"/>
      <stop offset="0.55" stop-color="#2563EB"/>
      <stop offset="1" stop-color="#D946EF"/>
    </linearGradient>
  </defs>
</svg>
